<svg xmlns="http://www.w3.org/2000/svg" xmlns:xlink="http://www.w3.org/1999/xlink" width="844.499" height="518.716" viewBox="0 0 844.499 518.716">
  <defs>
    <radialGradient id="radial-gradient" cx="0.5" cy="0.5" r="7.453" gradientTransform="translate(-1.271 20.43) scale(0.067 0.067)" gradientUnits="objectBoundingBox">
      <stop offset="0" stop-color="#300b0b"/>
      <stop offset="0.141" stop-color="#5b3e3e"/>
      <stop offset="0.311" stop-color="#8c7878"/>
      <stop offset="0.476" stop-color="#b5a8a8"/>
      <stop offset="0.632" stop-color="#d5ced0"/>
      <stop offset="0.775" stop-color="#e9e8ec"/>
      <stop offset="0.902" stop-color="#f9f9fa"/>
      <stop offset="1" stop-color="#fff"/>
    </radialGradient>
    <linearGradient id="linear-gradient" x1="0.579" y1="1.435" x2="0.519" y2="0.739" gradientUnits="objectBoundingBox">
      <stop offset="0" stop-color="#414042"/>
      <stop offset="1" stop-color="#231f20"/>
    </linearGradient>
    <linearGradient id="linear-gradient-2" y1="0.5" x2="1" y2="0.5" gradientUnits="objectBoundingBox">
      <stop offset="0.048" stop-color="#a7a9ac"/>
      <stop offset="0.218" stop-color="#bdbfc1"/>
      <stop offset="0.398" stop-color="#d1d3d4"/>
      <stop offset="0.535" stop-color="#caccce"/>
      <stop offset="0.721" stop-color="#b9bbbd"/>
      <stop offset="0.935" stop-color="#9d9fa1"/>
      <stop offset="1" stop-color="#939598"/>
    </linearGradient>
    <linearGradient id="linear-gradient-3" y1="0.5" x2="1" y2="0.5" gradientUnits="objectBoundingBox">
      <stop offset="0" stop-color="#d1d3d4"/>
      <stop offset="1" stop-color="#fff"/>
    </linearGradient>
    <linearGradient id="linear-gradient-4" x1="1.194" y1="-0.255" x2="0.2" y2="0.827" gradientUnits="objectBoundingBox">
      <stop offset="0" stop-color="#d1d3d4" stop-opacity="0"/>
      <stop offset="0.373" stop-color="#d1d3d4" stop-opacity="0.008"/>
      <stop offset="0.507" stop-color="#d2d4d5" stop-opacity="0.035"/>
      <stop offset="0.603" stop-color="#d4d6d7" stop-opacity="0.078"/>
      <stop offset="0.68" stop-color="#d7d9da" stop-opacity="0.145"/>
      <stop offset="0.746" stop-color="#dbddde" stop-opacity="0.231"/>
      <stop offset="0.805" stop-color="#e0e1e2" stop-opacity="0.341"/>
      <stop offset="0.858" stop-color="#e6e7e8" stop-opacity="0.467"/>
      <stop offset="0.907" stop-color="#edeeee" stop-opacity="0.616"/>
      <stop offset="0.952" stop-color="#f5f5f5" stop-opacity="0.784"/>
      <stop offset="0.993" stop-color="#fdfdfd" stop-opacity="0.965"/>
      <stop offset="1" stop-color="#fff"/>
    </linearGradient>
  </defs>
  <g id="Group_221" data-name="Group 221" transform="translate(-390.009 -593.155)">
    <g id="Group_218" data-name="Group 218" transform="translate(170 593.311)">
      <path id="Path_803" data-name="Path 803" d="M422.249,0C655.451,0,844.5,12.583,844.5,28.106c0,14.156-157.239,25.868-361.678,27.819q-29.8.284-60.571.287C189.047,56.211,0,43.628,0,28.106S189.047,0,422.249,0Z" transform="translate(220.009 462.348)" opacity="0.32" fill="url(#radial-gradient)" style="mix-blend-mode: multiply;isolation: isolate"/>
      <g id="Group_179" data-name="Group 179" transform="translate(220.009 0)">
        <g id="Group_178" data-name="Group 178" transform="translate(0 0.344)">
          <g id="Group_138" data-name="Group 138">
            <g id="Group_137" data-name="Group 137">
              <path id="Rectangle_59" data-name="Rectangle 59" d="M6.381,0H692.61a6.381,6.381,0,0,1,6.381,6.381v462.47a0,0,0,0,1,0,0H0a0,0,0,0,1,0,0V6.381A6.381,6.381,0,0,1,6.381,0Z" transform="translate(72.753)" fill="url(#linear-gradient)"/>
              <rect id="Rectangle_60" data-name="Rectangle 60" width="410.486" height="640.628" transform="translate(742.563 29.182) rotate(90)" fill="#ededf7"/>
              <path id="Rectangle_61" data-name="Rectangle 61" d="M6.381,0H692.61a6.381,6.381,0,0,1,6.381,6.381v462.47a0,0,0,0,1,0,0H0a0,0,0,0,1,0,0V6.381A6.381,6.381,0,0,1,6.381,0Z" transform="translate(72.753)" fill="none" stroke="#707070" stroke-miterlimit="10" stroke-width="1"/>
              <path id="Rectangle_62" data-name="Rectangle 62" d="M.361,0H844.137a.361.361,0,0,1,.361.361V8.78a0,0,0,0,1,0,0H0a0,0,0,0,1,0,0V.361A.361.361,0,0,1,.361,0Z" transform="translate(0 464.799)" fill="#fff"/>
              <path id="Rectangle_63" data-name="Rectangle 63" d="M0,0H97.664a0,0,0,0,1,0,0V6.766a2.418,2.418,0,0,1-2.418,2.418H2.418A2.418,2.418,0,0,1,0,6.766V0A0,0,0,0,1,0,0Z" transform="translate(373.417 464.395)" fill="url(#linear-gradient-2)"/>
              <path id="Path_706" data-name="Path 706" d="M1046.757,414.079H274.388a72.926,72.926,0,0,1-29.974-6.441l-6.089-2.74h844.5l-6.089,2.74A72.932,72.932,0,0,1,1046.757,414.079Z" transform="translate(-238.325 68.683)" fill="url(#linear-gradient-3)"/>
              <rect id="Rectangle_64" data-name="Rectangle 64" width="410.486" height="640.628" transform="translate(742.563 29.182) rotate(90)" fill="none" stroke="#bdbdc6" stroke-linecap="round" stroke-linejoin="round" stroke-width="0.5"/>
              <circle id="Ellipse_15" data-name="Ellipse 15" cx="3.91" cy="3.91" r="3.91" transform="translate(418.34 11.623)" fill="#fff" opacity="0.27"/>
            </g>
            <path id="Path_707" data-name="Path 707" d="M909.56,271.12V716H747.133c-133.424-134.5-344.71-347.479-460.7-464.4H890.022A19.525,19.525,0,0,1,909.56,271.12Z" transform="translate(-137.815 -251.607)" fill="url(#linear-gradient-4)" style="mix-blend-mode: screen;isolation: isolate"/>
          </g>
          <path id="Path_720" data-name="Path 720" d="M343.044,296.987h-45.3a1.1,1.1,0,0,1-1.1-1.1h0a1.1,1.1,0,0,1,1.1-1.1h45.3a1.1,1.1,0,0,1,1.1,1.1h0A1.1,1.1,0,0,1,343.044,296.987Z" transform="translate(-116.458 -161.379)" fill="#ededf7"/>
          <path id="Path_721" data-name="Path 721" d="M343.044,310.887h-45.3a1.1,1.1,0,0,1-1.1-1.1h0a1.1,1.1,0,0,1,1.1-1.1h45.3a1.1,1.1,0,0,1,1.1,1.1h0A1.1,1.1,0,0,1,343.044,310.887Z" transform="translate(-116.458 -132.336)" fill="#ededf7"/>
          <path id="Path_722" data-name="Path 722" d="M343.044,324.787h-45.3a1.1,1.1,0,0,1-1.1-1.1h0a1.1,1.1,0,0,1,1.1-1.1h45.3a1.1,1.1,0,0,1,1.1,1.1h0A1.1,1.1,0,0,1,343.044,324.787Z" transform="translate(-116.458 -103.292)" fill="#ededf7"/>
          <path id="Path_723" data-name="Path 723" d="M343.044,338.687h-45.3a1.1,1.1,0,0,1-1.1-1.1h0a1.1,1.1,0,0,1,1.1-1.1h45.3a1.1,1.1,0,0,1,1.1,1.1h0A1.1,1.1,0,0,1,343.044,338.687Z" transform="translate(-116.458 -74.249)" fill="#ededf7"/>
          <path id="Path_724" data-name="Path 724" d="M343.044,352.586h-45.3a1.1,1.1,0,0,1-1.1-1.1h0a1.1,1.1,0,0,1,1.1-1.1h45.3a1.1,1.1,0,0,1,1.1,1.1h0A1.1,1.1,0,0,1,343.044,352.586Z" transform="translate(-116.458 -45.208)" fill="#ededf7"/>
        </g>
      </g>
    </g>
  </g>
</svg>
